REM DIRINDEX 1\2,1\3
REM DIRNAME folder01,folder02,folder03
TITLE ""
FILE "3001-3020.mp3" MP3
  TRACK 01 AUDIO
    TITLE "0:"
    INDEX 01 00:00:00
  TRACK 02 AUDIO
    TITLE "2:cjc039_5001"
    INDEX 01 00:00:23
  TRACK 03 AUDIO
    TITLE "0:"
    INDEX 01 00:01:26
  TRACK 04 AUDIO
    TITLE "3:cjc039_5002"
    INDEX 01 00:02:02
  TRACK 05 AUDIO
    TITLE "0:"
    INDEX 01 00:06:20
  TRACK 06 AUDIO
    TITLE "2:cjc039_5003"
    INDEX 01 00:07:66
  TRACK 07 AUDIO
    TITLE "0:"
    INDEX 01 00:09:26
  TRACK 08 AUDIO
    TITLE "3:cjc039_5004"
    INDEX 01 00:09:67
  TRACK 09 AUDIO
    TITLE "0:"
    INDEX 01 00:13:71
  TRACK 10 AUDIO
    TITLE "2:cjc039_5005"
    INDEX 01 00:15:46
  TRACK 11 AUDIO
    TITLE "0:"
    INDEX 01 00:16:49
  TRACK 12 AUDIO
    TITLE "3:cjc039_5006"
    INDEX 01 00:17:21
  TRACK 13 AUDIO
    TITLE "0:"
    INDEX 01 00:22:03
  TRACK 14 AUDIO
    TITLE "2:cjc039_5007"
    INDEX 01 00:23:46
  TRACK 15 AUDIO
    TITLE "0:"
    INDEX 01 00:24:74
  TRACK 16 AUDIO
    TITLE "3:cjc039_5008"
    INDEX 01 00:25:48
  TRACK 17 AUDIO
    TITLE "0:"
    INDEX 01 00:30:05
  TRACK 18 AUDIO
    TITLE "2:cjc039_5009"
    INDEX 01 00:31:53
  TRACK 19 AUDIO
    TITLE "0:"
    INDEX 01 00:33:05
  TRACK 20 AUDIO
    TITLE "3:cjc039_5010"
    INDEX 01 00:33:52
  TRACK 21 AUDIO
    TITLE "0:"
    INDEX 01 00:37:26
  TRACK 22 AUDIO
    TITLE "2:cjc039_5011"
    INDEX 01 00:39:03
  TRACK 23 AUDIO
    TITLE "0:"
    INDEX 01 00:40:26
  TRACK 24 AUDIO
    TITLE "3:cjc039_5012"
    INDEX 01 00:40:73
  TRACK 25 AUDIO
    TITLE "0:"
    INDEX 01 00:45:00
  TRACK 26 AUDIO
    TITLE "2:cjc039_5013"
    INDEX 01 00:46:45
  TRACK 27 AUDIO
    TITLE "0:"
    INDEX 01 00:47:50
  TRACK 28 AUDIO
    TITLE "3:cjc039_5014"
    INDEX 01 00:48:26
  TRACK 29 AUDIO
    TITLE "0:"
    INDEX 01 00:52:02
  TRACK 30 AUDIO
    TITLE "2:cjc039_5015"
    INDEX 01 00:53:51
  TRACK 31 AUDIO
    TITLE "0:"
    INDEX 01 00:54:68
  TRACK 32 AUDIO
    TITLE "3:cjc039_5016"
    INDEX 01 00:55:40
  TRACK 33 AUDIO
    TITLE "0:"
    INDEX 01 00:59:59
  TRACK 34 AUDIO
    TITLE "2:cjc039_5017"
    INDEX 01 01:01:34
  TRACK 35 AUDIO
    TITLE "0:"
    INDEX 01 01:02:55
  TRACK 36 AUDIO
    TITLE "3:cjc039_5018"
    INDEX 01 01:03:26
  TRACK 37 AUDIO
    TITLE "0:"
    INDEX 01 01:07:39
  TRACK 38 AUDIO
    TITLE "2:cjc039_5019"
    INDEX 01 01:09:12
  TRACK 39 AUDIO
    TITLE "0:"
    INDEX 01 01:10:20
  TRACK 40 AUDIO
    TITLE "3:cjc039_5020"
    INDEX 01 01:10:71
  TRACK 41 AUDIO
    TITLE "0:"
    INDEX 01 01:14:68
  TRACK 42 AUDIO
    TITLE "2:cjc039_5021"
    INDEX 01 01:16:34
  TRACK 43 AUDIO
    TITLE "0:"
    INDEX 01 01:17:41
  TRACK 44 AUDIO
    TITLE "3:cjc039_5022"
    INDEX 01 01:18:13
  TRACK 45 AUDIO
    TITLE "0:"
    INDEX 01 01:21:45
  TRACK 46 AUDIO
    TITLE "2:cjc039_5023"
    INDEX 01 01:23:13
  TRACK 47 AUDIO
    TITLE "0:"
    INDEX 01 01:24:43
  TRACK 48 AUDIO
    TITLE "3:cjc039_5024"
    INDEX 01 01:25:11
  TRACK 49 AUDIO
    TITLE "0:"
    INDEX 01 01:30:03
  TRACK 50 AUDIO
    TITLE "2:cjc039_5025"
    INDEX 01 01:31:45
  TRACK 51 AUDIO
    TITLE "0:"
    INDEX 01 01:32:53
  TRACK 52 AUDIO
    TITLE "3:cjc039_5026"
    INDEX 01 01:33:23
  TRACK 53 AUDIO
    TITLE "0:"
    INDEX 01 01:37:36
  TRACK 54 AUDIO
    TITLE "2:cjc039_5027"
    INDEX 01 01:39:10
  TRACK 55 AUDIO
    TITLE "0:"
    INDEX 01 01:40:35
  TRACK 56 AUDIO
    TITLE "3:cjc039_5028"
    INDEX 01 01:41:01
  TRACK 57 AUDIO
    TITLE "0:"
    INDEX 01 01:44:42
  TRACK 58 AUDIO
    TITLE "2:cjc039_5029"
    INDEX 01 01:46:08
  TRACK 59 AUDIO
    TITLE "0:"
    INDEX 01 01:47:29
  TRACK 60 AUDIO
    TITLE "3:cjc039_5030"
    INDEX 01 01:48:01
  TRACK 61 AUDIO
    TITLE "0:"
    INDEX 01 01:52:44
  TRACK 62 AUDIO
    TITLE "2:cjc039_5031"
    INDEX 01 01:54:11
  TRACK 63 AUDIO
    TITLE "0:"
    INDEX 01 01:55:30
  TRACK 64 AUDIO
    TITLE "3:cjc039_5032"
    INDEX 01 01:56:02
  TRACK 65 AUDIO
    TITLE "0:"
    INDEX 01 01:59:10
  TRACK 66 AUDIO
    TITLE "2:cjc039_5033"
    INDEX 01 02:00:59
  TRACK 67 AUDIO
    TITLE "0:"
    INDEX 01 02:01:68
  TRACK 68 AUDIO
    TITLE "3:cjc039_5034"
    INDEX 01 02:02:40
  TRACK 69 AUDIO
    TITLE "0:"
    INDEX 01 02:06:08
  TRACK 70 AUDIO
    TITLE "2:cjc039_5035"
    INDEX 01 02:07:55
  TRACK 71 AUDIO
    TITLE "0:"
    INDEX 01 02:08:68
  TRACK 72 AUDIO
    TITLE "3:cjc039_5036"
    INDEX 01 02:09:38
  TRACK 73 AUDIO
    TITLE "0:"
    INDEX 01 02:14:26
  TRACK 74 AUDIO
    TITLE "2:cjc039_5037"
    INDEX 01 02:15:72
  TRACK 75 AUDIO
    TITLE "0:"
    INDEX 01 02:17:12
  TRACK 76 AUDIO
    TITLE "3:cjc039_5038"
    INDEX 01 02:17:59
  TRACK 77 AUDIO
    TITLE "0:"
    INDEX 01 02:21:71
  TRACK 78 AUDIO
    TITLE "2:cjc039_5039"
    INDEX 01 02:23:42
  TRACK 79 AUDIO
    TITLE "0:"
    INDEX 01 02:24:71
  TRACK 80 AUDIO
    TITLE "3:cjc039_5040"
    INDEX 01 02:25:39
  TRACK 81 AUDIO
    TITLE "0:"
    INDEX 01 02:29:17
